<svg 
 xmlns="http://www.w3.org/2000/svg"
 xmlns:xlink="http://www.w3.org/1999/xlink"
 width="50.5px" height="13.5px">
<path fill-rule="evenodd"  stroke="rgb(255, 204, 0)" stroke-width="1px" stroke-linecap="butt" stroke-linejoin="miter" fill="none"
 d="M25.000,0.500 C28.314,0.500 31.000,3.186 31.000,6.500 C31.000,9.814 28.314,12.500 25.000,12.500 C21.686,12.500 19.000,9.814 19.000,6.500 C19.000,3.186 21.686,0.500 25.000,0.500 Z"/>
<path fill-rule="evenodd"  fill="rgb(255, 204, 0)"
 d="M45.000,1.500 C47.761,1.500 50.000,3.739 50.000,6.500 C50.000,9.261 47.761,11.500 45.000,11.500 C42.239,11.500 40.000,9.261 40.000,6.500 C40.000,3.739 42.239,1.500 45.000,1.500 Z"/>
<path fill-rule="evenodd"  fill="rgb(255, 204, 0)"
 d="M5.000,1.500 C7.761,1.500 10.000,3.739 10.000,6.500 C10.000,9.261 7.761,11.500 5.000,11.500 C2.239,11.500 -0.000,9.261 -0.000,6.500 C-0.000,3.739 2.239,1.500 5.000,1.500 Z"/>
</svg>